Coordinates
version=1
nRows=18
nColumns=22
inDegrees=yes

Units are S.I. units (second, meters, Newtons, ...)
If the header above contains a line with 'inDegrees', this indicates whether rotational values are in degrees (yes) or radians (no).

endheader
time	pelvis_tilt	pelvis_list	pelvis_rotation	pelvis_tx	pelvis_ty	pelvis_tz	hip_flexion_r	hip_adduction_r	hip_rotation_r	knee_angle_r	ankle_angle_r	subtalar_angle_r	hip_flexion_l	hip_adduction_l	hip_rotation_l	knee_angle_l	ankle_angle_l	subtalar_angle_l	lumbar_extension	lumbar_bending	lumbar_rotation
      1.22000000	     -6.51387814	     -7.87983241	      1.47387017	     -1.04655935	      0.97377393	      0.06170677	      8.54281418	      8.80770148	     -2.10853330	    -14.04311118	      9.63395062	      0.16930159	      6.20187289	     -5.94457005	      5.35030018	     -9.39386021	     11.85078510	     -4.25161702	      4.33094401	      5.62380652	     -7.66366208
      1.23000000	     -6.60583363	     -7.91469592	      1.52953113	     -1.04629674	      0.97359937	      0.06113926	      8.63791861	      8.79774141	     -2.18713047	    -14.06186014	      9.66225197	      0.22317961	      6.35099266	     -5.93355520	      5.45474152	     -9.49616417	     11.90464733	     -4.31702526	      4.36557866	      5.63504982	     -7.72069152
      1.24000000	     -6.62853518	     -7.93172122	      1.53920814	     -1.04591499	      0.97353164	      0.06061261	      8.63173118	      8.78231298	     -2.17645852	    -14.05243318	      9.67319272	      0.22927380	      6.38401496	     -5.91302503	      5.50521003	     -9.55396059	     11.93419521	     -4.32772363	      4.32200512	      5.63399999	     -7.68859006
      1.25000000	     -6.68505755	     -7.97057549	      1.57774015	     -1.04553316	      0.97339477	      0.06003478	      8.67098385	      8.77950900	     -2.22994337	    -14.05476267	      9.70582905	      0.28350391	      6.49020243	     -5.90747133	      5.58242801	     -9.66595677	     12.01269307	     -4.38958024	      4.31954155	      5.65569905	     -7.71736141
      1.26000000	     -6.71100272	     -7.98853244	      1.58907799	     -1.04507672	      0.97330546	      0.05946630	      8.66653342	      8.76193170	     -2.22698370	    -14.05138869	      9.73274347	      0.30590581	      6.53777369	     -5.88260699	      5.64035429	     -9.75196662	     12.07890098	     -4.42018931	      4.28272033	      5.65919171	     -7.70354094
      1.27000000	     -6.73774615	     -8.01387774	      1.60168413	     -1.04459331	      0.97320681	      0.05888608	      8.66681292	      8.74959794	     -2.24407177	    -14.05702814	      9.76642743	      0.33615952	      6.59217582	     -5.86490417	      5.70286214	     -9.85104196	     12.14698384	     -4.45865901	      4.24628997	      5.67059208	     -7.68926679
      1.28000000	     -6.75729059	     -8.03397151	      1.60321146	     -1.04406619	      0.97312644	      0.05830006	      8.65660460	      8.73356063	     -2.24418704	    -14.06340920	      9.78580245	      0.34691415	      6.62173715	     -5.84296588	      5.76389675	     -9.92884128	     12.17729053	     -4.47428175	      4.20200855	      5.67786891	     -7.64504485
      1.29000000	     -6.78429826	     -8.05135872	      1.61807131	     -1.04351345	      0.97300393	      0.05767847	      8.66489011	      8.70956397	     -2.26874179	    -14.09441544	      9.84598229	      0.38389097	      6.67737927	     -5.81296744	      5.83038963	    -10.04114094	     12.28658403	     -4.53023002	      4.16811903	      5.68266556	     -7.64751312
      1.30000000	     -6.81648763	     -8.06409174	      1.62999329	     -1.04295153	      0.97287925	      0.05704512	      8.68994417	      8.67937650	     -2.29252619	    -14.14603999	      9.90043522	      0.42994150	      6.72961258	     -5.77755923	      5.91372062	    -10.14050289	     12.35756422	     -4.58721215	      4.13763871	      5.68267303	     -7.62829757
      1.31000000	     -6.84415300	     -8.07037506	      1.64028277	     -1.04234842	      0.97275557	      0.05639581	      8.71704995	      8.64152245	     -2.31147638	    -14.21610975	      9.96178304	      0.47126050	      6.76534515	     -5.73503781	      5.99398011	    -10.22538751	     12.42426999	     -4.63613575	      4.10218799	      5.67640575	     -7.60126396
      1.32000000	     -6.86683247	     -8.07039987	      1.65471008	     -1.04168865	      0.97262977	      0.05573273	      8.75111257	      8.59617039	     -2.33255520	    -14.31366439	     10.03412008	      0.51195195	      6.78443935	     -5.68604245	      6.07471743	    -10.29765776	     12.49185727	     -4.67874702	      4.06622738	      5.66336204	     -7.57284164
      1.33000000	     -6.88302615	     -8.06404789	      1.67596530	     -1.04098811	      0.97250237	      0.05504716	      8.79554431	      8.54185330	     -2.35484725	    -14.44555888	     10.11957509	      0.55168729	      6.78617906	     -5.62974886	      6.15953763	    -10.35476348	     12.56539239	     -4.71483619	      4.02367086	      5.64346083	     -7.54115448
      1.34000000	     -6.89476179	     -8.04656024	      1.70660879	     -1.04023515	      0.97236626	      0.05433577	      8.85803420	      8.47268382	     -2.38760166	    -14.62332743	     10.22767332	      0.60128537	      6.77217808	     -5.56045569	      6.24765811	    -10.39659935	     12.63932201	     -4.75038497	      3.98064752	      5.60919488	     -7.51548614
      1.35000000	     -6.89905639	     -8.02128163	      1.74442434	     -1.03943573	      0.97222634	      0.05359239	      8.93691329	      8.39194586	     -2.42439232	    -14.84710339	     10.34861317	      0.65443777	      6.73843850	     -5.48195179	      6.34236621	    -10.42217826	     12.71588226	     -4.78226653	      3.93156431	      5.56787515	     -7.49285587
      1.36000000	     -6.89567181	     -7.98672751	      1.79390219	     -1.03857396	      0.97208135	      0.05282780	      9.03267816	      8.29951067	     -2.47216394	    -15.12001371	     10.48607102	      0.71011588	      6.68590974	     -5.39270777	      6.44127028	    -10.43362400	     12.79295931	     -4.81172093	      3.88040910	      5.51182285	     -7.47788841
      1.37000000	     -6.90164834	     -7.91594188	      1.87168837	     -1.03769551	      0.97191193	      0.05197742	      9.17118925	      8.15810474	     -2.53779868	    -15.45251939	     10.65950201	      0.82797160	      6.64487183	     -5.25715662	      6.55076015	    -10.44216781	     12.82594393	     -4.85471980	      3.84043992	      5.41668201	     -7.51621581
      1.38000000	     -6.89269614	     -7.85939567	      1.95687237	     -1.03674968	      0.97173700	      0.05111852	      9.31948888	      8.03167362	     -2.61111171	    -15.83283395	     10.83068086	      0.92445416	      6.57638102	     -5.13875286	      6.67089694	    -10.43663633	     12.89702202	     -4.89276827	      3.78987413	      5.33323510	     -7.52923970
      1.39000000	     -6.87320519	     -7.78699250	      2.05874972	     -1.03574538	      0.97155172	      0.05020053	      9.48769890	      7.88228329	     -2.70246864	    -16.27364701	     11.02172626	      0.99874843	      6.48657613	     -5.00102117	      6.79637913	    -10.41685948	     12.96928136	     -4.92492644	      3.72942290	      5.23569355	     -7.56156223
